<svg xmlns="http://www.w3.org/2000/svg" viewBox="0 0 512 512" role="img" aria-labelledby="title desc">
  <title>TestForge App Icon</title>
  <desc>Blue rounded square with a white checkmark and orange spark accent.</desc>
  <defs>
    <linearGradient id="bg" x1="64" y1="64" x2="448" y2="448" gradientUnits="userSpaceOnUse">
      <stop offset="0" stop-color="#1d4ed8" />
      <stop offset="1" stop-color="#0f766e" />
    </linearGradient>
    <filter id="shadow" x="-20%" y="-20%" width="140%" height="140%">
      <feDropShadow dx="0" dy="16" stdDeviation="18" flood-color="#0f172a" flood-opacity="0.22" />
    </filter>
  </defs>
  <rect x="48" y="48" width="416" height="416" rx="112" fill="url(#bg)" filter="url(#shadow)" />
  <path
    d="M154 267c12-12 31-12 43 0l39 39 106-116c12-13 32-14 45-2 13 12 14 32 2 45L261 374c-6 7-15 10-24 10s-17-3-24-10l-59-59c-12-12-12-31 0-43Z"
    fill="#ffffff"
  />
  <path
    d="M358 116l15 36 36 15-36 15-15 36-15-36-36-15 36-15 15-36Z"
    fill="#f59e0b"
  />
</svg>
